<svg width="150" height="40" viewBox="0 0 150 40" fill="none" xmlns="http://www.w3.org/2000/svg">
<path d="M46.6881 24.4444H43.2555V9.4486L30.7159 3.16985L18.1763 9.4486V24.3835H14.7437V8.53422C14.7437 7.98559 15.0939 7.49792 15.5843 7.25409L29.8752 0.182876C30.4357 -0.0609587 31.0661 -0.0609587 31.5565 0.182876L45.8475 7.31505C46.4079 7.55888 46.6881 8.04655 46.6881 8.59518V24.4444Z" fill="#314254"/>
<path d="M0 15.5557H3.42512V29.95L15.9373 36.6285L28.5193 29.95V15.5557H31.9444V30.7929C31.9444 31.3765 31.5949 31.8952 31.1056 32.1545L16.846 39.8056C16.2868 40.0649 15.6577 40.0649 15.1684 39.8056L0.908704 32.2194C0.349502 31.96 0.0699006 31.4413 0.0699006 30.8578V15.5557H0Z" fill="#48BBC8"/>
<path d="M126.007 14.8701C126.474 16.1104 127.069 16.8081 127.494 17.3507L136.199 28.1647H137.133L145.499 17.0406C145.839 16.6143 146.263 15.9166 146.815 14.8701C146.73 16.343 146.645 17.3507 146.645 17.8158V31.3042H150V11.3042H146.645L136.709 24.3275L126.05 11.3042H123.077V31.3042H126.177V17.8158C126.177 17.0406 126.177 16.0329 126.007 14.8701Z" fill="#48BBC8"/>
<path d="M73.7958 11.3042H61.5386V31.3042H73.7958C77.5506 31.3042 80.356 30.9166 82.3413 29.7538C85.233 28.0484 86.9593 24.9476 86.9593 21.1879C86.9593 17.622 85.1898 14.5213 82.3413 12.8546C80.3128 11.6918 77.5506 11.3042 73.7958 11.3042ZM73.2779 14.0174C79.8812 14.0174 83.1613 15.7616 83.1613 21.1879C83.1613 26.8468 79.9244 28.5135 73.2779 28.5135H65.2503V14.0174H73.2779Z" fill="#314254"/>
<path d="M111.932 14.0174V16.9244L115.126 16.1104V15.684C115.126 12.2344 113.615 11.3042 109.904 11.3042H98.0347C94.0641 11.3042 92.8556 12.312 92.8556 16.0329V17.7771C92.8556 21.498 94.0641 22.5057 98.0347 22.5057H112.018V28.5135H95.4452V25.2964L91.9924 26.0329V26.5755C91.9924 30.2577 93.2009 31.3042 97.2147 31.3042H110.206C114.219 31.3042 115.385 30.2577 115.385 26.5755V24.3275C115.385 20.7228 114.263 19.5988 110.206 19.5988H96.1789V14.0174H111.932Z" fill="#314254"/>
</svg>
